<?xml version="1.0" standalone="no"?>
<!DOCTYPE svg PUBLIC "-//W3C//DTD SVG 20010904//EN"
 "http://www.w3.org/TR/2001/REC-SVG-20010904/DTD/svg10.dtd">
<svg version="1.0" xmlns="http://www.w3.org/2000/svg"
 width="980.000000pt" height="980.000000pt" viewBox="0 0 980.000000 980.000000"
 preserveAspectRatio="xMidYMid meet">
<metadata>
Created by potrace 1.14, written by Peter Selinger 2001-2017
</metadata>
<g transform="translate(0.000000,980.000000) scale(0.100000,-0.100000)"
fill="#000000" stroke="none">
<path d="M4500 9789 c-833 -72 -1599 -335 -2288 -785 -295 -194 -506 -366
-778 -638 -272 -272 -444 -483 -638 -778 -389 -596 -638 -1247 -745 -1951 -69
-450 -69 -1024 0 -1474 135 -892 500 -1701 1083 -2408 124 -151 464 -491 616
-616 800 -663 1726 -1041 2765 -1129 155 -13 615 -13 770 0 1040 88 1964 465
2765 1129 148 122 489 463 611 611 664 801 1041 1725 1129 2765 13 155 13 615
0 770 -54 637 -209 1207 -479 1760 -179 367 -379 678 -645 1000 -127 154 -467
494 -621 621 -801 661 -1722 1036 -2760 1124 -139 11 -646 11 -785 -1z m565
-649 c134 -64 297 -256 412 -485 148 -293 277 -681 373 -1120 17 -77 33 -150
35 -162 l5 -23 -990 0 c-939 0 -991 1 -986 18 2 9 14 62 26 117 195 927 509
1553 840 1675 85 31 194 24 285 -20z m-1145 -85 c0 -2 -14 -28 -31 -57 -193
-325 -424 -956 -549 -1504 -17 -76 -33 -140 -34 -142 -2 -1 -429 -1 -951 0
l-947 3 62 85 c238 323 557 642 887 889 428 320 959 576 1473 710 85 22 90 23
90 16z m2060 -20 c451 -111 981 -360 1394 -655 344 -246 706 -602 956 -940
l62 -85 -947 -3 c-522 -1 -949 -1 -951 0 -1 2 -17 66 -34 142 -125 548 -356
1179 -549 1504 -36 61 -37 65 -13 58 9 -3 46 -12 82 -21z m-2790 -2319 c0 -8
-9 -75 -19 -148 -39 -267 -91 -807 -91 -946 0 -31 -3 -67 -6 -79 l-6 -23
-1199 0 -1198 0 5 33 c24 136 69 348 90 427 56 209 162 507 243 683 l31 67
1075 0 c931 0 1075 -2 1075 -14z m2804 -3 c18 -58 85 -759 102 -1070 l7 -123
-1202 0 -1201 0 0 43 c0 161 85 1094 105 1155 4 9 231 12 1094 12 1029 0 1090
-1 1095 -17z m2791 -40 c154 -333 264 -695 339 -1120 l6 -33 -1200 0 -1199 0
-5 53 c-3 28 -10 126 -16 217 -14 214 -44 503 -75 734 -14 102 -25 189 -25
195 0 8 313 11 1074 11 l1075 0 26 -57z m-5725 -1960 c0 -421 47 -1053 110
-1496 11 -76 20 -140 20 -143 0 -2 -483 -4 -1073 -4 l-1073 0 -51 118 c-156
354 -258 688 -318 1044 -31 186 -55 428 -55 560 l0 98 1220 0 1220 0 0 -177z
m3056 -105 c-7 -319 -19 -545 -41 -823 -15 -179 -59 -595 -72 -677 l-6 -38
-1097 0 -1097 0 -7 48 c-58 414 -100 972 -112 1495 l-7 277 1223 0 1223 0 -7
-282z m3061 115 c-7 -200 -35 -424 -77 -629 -71 -340 -154 -589 -321 -971
l-23 -53 -1073 0 c-590 0 -1073 1 -1073 3 0 1 9 65 19 142 63 445 98 894 108
1368 l6 307 1220 0 1220 0 -6 -167z m-5849 -2377 c116 -534 341 -1156 551
-1525 23 -41 40 -75 38 -77 -12 -12 -393 107 -586 183 -720 284 -1396 808
-1865 1446 l-57 77 948 0 948 0 23 -104z m2545 -8 c-186 -870 -460 -1463 -765
-1655 -371 -235 -764 182 -1043 1110 -48 158 -113 414 -144 565 l-18 92 997 0
997 0 -24 -112z m2461 35 c-161 -220 -444 -525 -659 -710 -417 -361 -904 -641
-1413 -813 -146 -49 -373 -113 -379 -106 -2 2 13 32 33 67 104 176 251 515
349 799 80 233 224 762 225 823 0 16 52 17 950 17 l951 0 -57 -77z"/>
</g>
</svg>
